<svg xmlns="http://www.w3.org/2000/svg" version="1.1" xmlns:xlink="http://www.w3.org/1999/xlink" width="512" height="512" x="0" y="0" viewBox="0 0 414 414" style="enable-background:new 0 0 512 512" xml:space="preserve" class=""><g><path fill="#ffc627" d="M414 207c0 114.324-92.676 207-207 207S0 321.324 0 207 92.676 0 207 0s207 92.676 207 207zm0 0" opacity="1" data-original="#f0c48a" class=""></path><path fill="#b46670" d="M267.836 360.195H146.164v-20.644c0-7.867 6.379-14.246 14.246-14.246h93.18c7.867 0 14.242 6.379 14.242 14.246v20.644zm0 0" opacity="1" data-original="#fd919e" class=""></path><path fill="#8c1d40" d="M184.203 278.707h45.594v46.598h-45.594zM253.59 325.305h-29.414c7.867 0 14.242 6.379 14.242 14.246v20.644h29.414v-20.644c.004-7.867-6.375-14.246-14.242-14.246zm0 0" opacity="1" data-original="#e8677d" class=""></path><path fill="#00a3e0" d="M333.813 278.707H80.188c-9.278 0-16.793-7.516-16.793-16.793V94.82c0-9.273 7.515-16.789 16.792-16.789h253.625c9.278 0 16.793 7.516 16.793 16.79v167.097c0 9.273-7.515 16.789-16.793 16.789zm0 0" opacity="1" data-original="#7babf1" class=""></path><g fill="#4c4372"><path d="M333.813 284.707H80.188c-12.57 0-22.793-10.223-22.793-22.789V94.82c0-12.566 10.222-22.793 22.792-22.793h253.625c12.567 0 22.793 10.227 22.793 22.793v167.098c0 12.566-10.226 22.789-22.793 22.789zM80.188 84.031c-5.954 0-10.793 4.84-10.793 10.79v167.1c0 5.95 4.84 10.79 10.793 10.79h253.625c5.953 0 10.792-4.84 10.792-10.79v-167.1c0-5.95-4.84-10.794-10.793-10.794H80.188zm0 0" fill="#000000" opacity="1" data-original="#4c4372" class=""></path><path d="M229.797 331.305h-45.594c-3.316 0-6-2.688-6-6v-46.598c0-3.316 2.684-6 6-6h45.594c3.312 0 6 2.684 6 6v46.598c0 3.316-2.684 6-6 6zm-39.594-12h33.594v-34.598h-33.594zm0 0" fill="#000000" opacity="1" data-original="#4c4372" class=""></path><path d="M267.836 366.195H146.164c-3.312 0-6-2.683-6-6v-20.644c0-11.164 9.082-20.246 20.246-20.246h93.18c11.164 0 20.246 9.082 20.246 20.246v20.644c0 3.317-2.688 6-6 6zm-115.672-12h109.672v-14.644c0-4.543-3.703-8.246-8.246-8.246h-93.18c-4.543 0-8.246 3.703-8.246 8.246zM166.453 204.188c2.66 2.765 2.66 6.917 0 9.578-1.387 1.277-2.98 1.914-4.683 1.914a7.098 7.098 0 0 1-4.895-1.914l-29.902-30.328c-.32-.11-.426-.32-.532-.641-.105-.106-.32-.207-.32-.207-.21-.32-.21-.535-.32-.856-.211-.105-.32-.32-.32-.425-.106-.211-.106-.532-.211-.637 0-.32-.211-.43-.211-.535v-.742c0-.211-.106-.32-.106-.637 0-.11.106-.43.106-.535v-.746c0-.211.21-.32.21-.426.106-.32.106-.531.211-.852 0-.105.11-.105.11-.21.21-.317.316-.747.531-.958 0 0 0-.21.211-.21.106-.212.32-.532.637-.747l29.902-30.328c2.66-2.55 7.024-2.55 9.578 0a6.745 6.745 0 0 1 0 9.578l-25.219 25.434zM193.59 207.594l26.07-62.043c1.278-2.98 4.684-4.363 7.77-3.086 2.875 1.172 4.257 4.683 2.98 7.555l-26.07 62.144c-.961 2.234-3.195 3.516-5.43 3.516-.637 0-1.488-.11-2.125-.426-3.09-1.172-4.472-4.684-3.195-7.66zM281.918 182.586s0 .105-.11.105c-.21.211-.425.532-.742.746l-29.902 30.329c-1.277 1.277-3.086 1.914-4.789 1.914-1.809 0-3.406-.637-4.79-1.914-2.66-2.66-2.66-6.813 0-9.578l25.216-25.434-25.215-25.434a6.745 6.745 0 0 1 0-9.578c2.55-2.55 6.914-2.55 9.574 0l29.903 30.328c.32.215.535.535.746.746.105 0 .105.211.105.211.211.426.426.637.535.957 0 .11.106.11.106.211.105.32.105.532.32.957 0 .11.105.11.105.32v.747c0 .105.106.426.106.535 0 .105-.106.426-.106.531v.852c0 .105-.105.105-.105.21-.215.426-.215.747-.32.958 0 .105-.106.105-.106.32-.105.215-.32.535-.531.96zm0 0" fill="#000000" opacity="1" data-original="#4c4372" class=""></path></g><path fill="#ffffff" d="m124.547 67.21 11.281-20.636 11.29 20.637 20.628 11.281-20.629 11.285-11.289 20.633-11.281-20.633-20.637-11.285zm0 0" opacity="1" data-original="#a4cff2" class=""></path><path fill="#000000" d="M135.828 116.41a5.994 5.994 0 0 1-5.262-3.12L120.125 94.2l-19.09-10.442a6.003 6.003 0 0 1-3.125-5.266c0-2.195 1.2-4.21 3.125-5.265l19.09-10.442 10.441-19.09a5.997 5.997 0 0 1 10.528 0l10.441 19.09 19.094 10.442a6.007 6.007 0 0 1 3.121 5.265 6 6 0 0 1-3.121 5.266l-19.094 10.441-10.441 19.09a5.995 5.995 0 0 1-5.266 3.121zm-19.414-37.918 11.012 6.024a6.002 6.002 0 0 1 2.383 2.382l6.02 11.008 6.023-11.008a5.953 5.953 0 0 1 2.382-2.382l11.008-6.024-11.008-6.02a5.953 5.953 0 0 1-2.382-2.382l-6.024-11.012-6.02 11.012a6.002 6.002 0 0 1-2.382 2.383zm8.133-11.285h.02zm0 0" opacity="1" data-original="#4c4372" class=""></path><path fill="#ffffff" d="m288.469 218.688 11.285-20.633 11.281 20.632 20.637 11.286-20.637 11.285-11.281 20.633-11.285-20.633-20.633-11.285zm0 0" opacity="1" data-original="#a4cff2" class=""></path><path fill="#000000" d="M299.754 267.89c-2.195 0-4.211-1.199-5.266-3.12l-10.441-19.094-19.094-10.442a6.003 6.003 0 0 1-3.121-5.265c0-2.192 1.2-4.207 3.121-5.262l19.094-10.441 10.441-19.094a5.998 5.998 0 0 1 10.527 0l10.442 19.094 19.094 10.441a6.001 6.001 0 0 1 3.12 5.262c0 2.195-1.198 4.21-3.12 5.265l-19.094 10.442-10.441 19.094a5.998 5.998 0 0 1-5.262 3.12zm-19.414-37.917 11.008 6.02a5.987 5.987 0 0 1 2.382 2.386l6.024 11.008 6.02-11.008a5.987 5.987 0 0 1 2.382-2.387l11.008-6.02-11.008-6.023a5.978 5.978 0 0 1-2.383-2.383l-6.02-11.007-6.023 11.007a5.978 5.978 0 0 1-2.382 2.383zm8.125-11.286h.02zm0 0" opacity="1" data-original="#4c4372" class=""></path></g></svg>