<svg xmlns="http://www.w3.org/2000/svg" version="1.1" xmlns:xlink="http://www.w3.org/1999/xlink" width="512" height="512" x="0" y="0" viewBox="0 0 414 414" style="enable-background:new 0 0 512 512" xml:space="preserve" class=""><g><path fill="#ffc627" d="M414 207c0 114.324-92.676 207-207 207S0 321.324 0 207 92.676 0 207 0s207 92.676 207 207zm0 0" opacity="1" data-original="#f0c48a" class=""></path><path fill="#b46670" d="M280.402 111.145V91.359h-18.976a54.999 54.999 0 0 0-8.946-21.597l13.418-13.418-13.988-13.992-13.418 13.418a55.023 55.023 0 0 0-21.597-8.946V27.848h-19.786v18.976a54.999 54.999 0 0 0-21.597 8.946l-13.418-13.418-13.992 13.992 13.421 13.418a55.063 55.063 0 0 0-8.949 21.597h-18.976v19.786h18.976a55.053 55.053 0 0 0 8.95 21.597l-13.422 13.418 13.992 13.992 13.418-13.422a55.063 55.063 0 0 0 21.597 8.95v18.976h19.786V155.68a55.053 55.053 0 0 0 21.597-8.95l13.418 13.422 13.988-13.992-13.418-13.418a55.023 55.023 0 0 0 8.946-21.597zM207 130.402c-16.102 0-29.152-13.05-29.152-29.148 0-16.102 13.05-29.156 29.152-29.156s29.152 13.05 29.152 29.152-13.05 29.152-29.152 29.152zm0 0" opacity="1" data-original="#fd919e" class=""></path><path fill="#000000" d="M216.89 180.656h-19.785c-3.312 0-6-2.687-6-6V160.48a60.298 60.298 0 0 1-14.75-6.109l-10.023 10.02a5.998 5.998 0 0 1-8.484 0l-13.993-13.989a5.996 5.996 0 0 1 0-8.484l10.024-10.023a60.298 60.298 0 0 1-6.11-14.75h-14.175c-3.313 0-6-2.688-6-6v-19.79c0-3.312 2.687-6 6-6h14.176a60.298 60.298 0 0 1 6.109-14.75l-10.024-10.023a5.996 5.996 0 0 1 0-8.484l13.993-13.989a5.998 5.998 0 0 1 8.484 0l10.023 10.02a60.298 60.298 0 0 1 14.75-6.11V27.845c0-3.313 2.688-6 6-6h19.786c3.316 0 6 2.687 6 6V42.02a60.262 60.262 0 0 1 14.754 6.109l10.02-10.02a5.998 5.998 0 0 1 8.483 0l13.993 13.989a5.996 5.996 0 0 1 0 8.484l-10.02 10.023a60.45 60.45 0 0 1 6.11 14.75h14.171c3.317 0 6 2.688 6 6v19.79c0 3.312-2.683 6-6 6H266.23a60.45 60.45 0 0 1-6.109 14.75l10.02 10.023a5.996 5.996 0 0 1 0 8.484l-13.993 13.989a5.998 5.998 0 0 1-8.484 0l-10.02-10.02a60.262 60.262 0 0 1-14.753 6.11v14.175c0 3.313-2.684 6-6 6zm-13.78-12h7.785V155.68a6.002 6.002 0 0 1 4.933-5.907 48.73 48.73 0 0 0 19.242-7.968 5.996 5.996 0 0 1 7.664.687l9.176 9.176 5.504-5.508-9.176-9.176a6.006 6.006 0 0 1-.687-7.664 48.68 48.68 0 0 0 7.972-19.242 5.998 5.998 0 0 1 5.903-4.933h12.976v-7.786h-12.976a5.998 5.998 0 0 1-5.903-4.933 48.72 48.72 0 0 0-7.972-19.246 6 6 0 0 1 .687-7.66l9.176-9.176-5.504-5.508-9.176 9.176a5.996 5.996 0 0 1-7.664.687 48.73 48.73 0 0 0-19.242-7.969 6.002 6.002 0 0 1-4.933-5.906V33.848h-7.786v12.976a6.002 6.002 0 0 1-4.933 5.906 48.827 48.827 0 0 0-19.246 7.97 5.99 5.99 0 0 1-7.66-.688l-9.176-9.176-5.508 5.508 9.176 9.176a5.995 5.995 0 0 1 .687 7.66 48.656 48.656 0 0 0-7.969 19.246 6.002 6.002 0 0 1-5.906 4.933h-12.976v7.786h12.976a6.002 6.002 0 0 1 5.906 4.933 48.672 48.672 0 0 0 7.97 19.242 5.996 5.996 0 0 1-.688 7.664l-9.176 9.176 5.508 5.508 9.176-9.176a5.99 5.99 0 0 1 7.66-.687 48.77 48.77 0 0 0 19.246 7.968 6.002 6.002 0 0 1 4.933 5.907zm3.89-32.254c-19.383 0-35.152-15.77-35.152-35.152S187.618 66.098 207 66.098s35.152 15.77 35.152 35.152-15.77 35.152-35.152 35.152zm0-58.304c-12.766 0-23.152 10.386-23.152 23.152s10.386 23.152 23.152 23.152 23.152-10.386 23.152-23.152S219.766 78.098 207 78.098zm0 0" opacity="1" data-original="#4c4372" class=""></path><path fill="#00a3e0" d="M330.754 306.633H83.246c-9.05 0-16.387-7.336-16.387-16.387V127.184c0-9.051 7.336-16.387 16.387-16.387h247.508c9.05 0 16.387 7.336 16.387 16.387v163.062c0 9.05-7.336 16.387-16.387 16.387zm0 0" opacity="1" data-original="#7babf1" class=""></path><path fill="#b46670" d="M266.367 386.152H147.633v-20.144c0-7.68 6.226-13.903 13.902-13.903h90.93c7.68 0 13.902 6.223 13.902 13.903zm0 0" opacity="1" data-original="#fd919e" class=""></path><path fill="#8c1d40" d="M184.754 306.633h44.492v45.472h-44.492zM252.465 352.105h-28.703c7.675 0 13.898 6.223 13.898 13.903v20.148h28.707v-20.148c0-7.68-6.226-13.903-13.902-13.903zm0 0" opacity="1" data-original="#e8677d" class=""></path><path fill="#000000" d="M330.754 312.633H83.246c-12.344 0-22.387-10.043-22.387-22.387V127.184c0-12.344 10.043-22.387 22.387-22.387h247.508c12.344 0 22.383 10.043 22.383 22.387v163.062c0 12.344-10.04 22.387-22.383 22.387zM83.246 116.793c-5.726 0-10.387 4.66-10.387 10.387v163.062c0 5.727 4.66 10.387 10.387 10.387h247.508c5.726 0 10.383-4.66 10.383-10.387V127.184c0-5.727-4.657-10.387-10.383-10.387H83.246zm0 0" opacity="1" data-original="#4c4372" class=""></path><path fill="#000000" d="M229.246 358.105h-44.492c-3.316 0-6-2.683-6-6v-45.472c0-3.313 2.684-6 6-6h44.492c3.316 0 6 2.687 6 6v45.472c0 3.317-2.684 6-6 6zm-38.492-12h32.492v-33.472h-32.492zm0 0" opacity="1" data-original="#4c4372" class=""></path><path fill="#000000" d="M266.367 392.152H147.633c-3.313 0-6-2.683-6-6v-20.144c0-10.973 8.93-19.903 19.902-19.903h90.93c10.972 0 19.898 8.93 19.898 19.903v20.144a5.993 5.993 0 0 1-5.996 6zm-112.734-12h106.73v-14.144c0-4.36-3.543-7.903-7.898-7.903h-90.93c-4.355 0-7.902 3.543-7.902 7.903zm0 0" opacity="1" data-original="#4c4372" class=""></path><path fill="#b46670" d="M282.867 151.941 151.945 282.863l-20.804-20.804 130.922-130.922zm0 0" opacity="1" data-original="#fd919e" class=""></path><path fill="#8c1d40" d="m166.668 268.137-14.723 14.722-20.804-20.804 14.722-14.723zm0 0" opacity="1" data-original="#e8677d" class=""></path><g fill="#4c4372"><path d="M151.941 288.863a5.967 5.967 0 0 1-4.242-1.758l-20.804-20.8a5.996 5.996 0 0 1 0-8.484l130.921-130.926a5.998 5.998 0 0 1 8.485 0l20.804 20.804a5.998 5.998 0 0 1 0 8.485L156.184 287.105a5.98 5.98 0 0 1-4.243 1.758zm-12.32-26.804 12.32 12.32L274.38 151.937l-12.316-12.316zm0 0" fill="#000000" opacity="1" data-original="#4c4372" class=""></path><path d="M268.14 172.664a5.98 5.98 0 0 1-4.242-1.758l-8.21-8.21a5.998 5.998 0 0 1 0-8.485 5.998 5.998 0 0 1 8.484 0l8.21 8.21a5.998 5.998 0 0 1 0 8.485 5.98 5.98 0 0 1-4.241 1.758zM242.773 198.035c-1.539 0-3.07-.586-4.242-1.758l-8.215-8.214c-2.343-2.34-2.343-6.141 0-8.485s6.141-2.344 8.485 0l8.215 8.215a5.998 5.998 0 0 1-4.243 10.242zM217.402 223.402a5.98 5.98 0 0 1-4.242-1.757l-8.21-8.211a5.998 5.998 0 0 1 0-8.485 5.998 5.998 0 0 1 8.484 0l8.21 8.211a5.998 5.998 0 0 1 0 8.485 5.98 5.98 0 0 1-4.242 1.757zM192.031 248.773a5.98 5.98 0 0 1-4.242-1.757l-8.215-8.215a6.005 6.005 0 0 1 0-8.485 6.003 6.003 0 0 1 8.488 0l8.211 8.215a5.998 5.998 0 0 1 0 8.485 5.974 5.974 0 0 1-4.242 1.757zM166.664 274.14a5.98 5.98 0 0 1-4.242-1.757l-8.215-8.211a6.005 6.005 0 0 1 0-8.485 5.999 5.999 0 0 1 8.488 0l8.211 8.211a6.005 6.005 0 0 1 0 8.485 5.98 5.98 0 0 1-4.242 1.758zm0 0" fill="#000000" opacity="1" data-original="#4c4372" class=""></path></g><path fill="#b46670" d="m267.617 251.832 7.223 23.008-23.008-7.223L142.43 158.211c-4.36-4.356-4.36-11.422 0-15.781 4.355-4.36 11.422-4.36 15.78 0zm0 0" opacity="1" data-original="#fd919e" class=""></path><path fill="#00a3e0" d="M142.43 142.43c-4.36 4.355-4.36 11.425 0 15.78l12.324 12.33 15.785-15.786-12.328-12.324c-4.36-4.36-11.426-4.36-15.781 0zm0 0" opacity="1" data-original="#7babf1" class=""></path><path fill="#000000" d="M274.84 280.84c-.602 0-1.207-.09-1.797-.277l-23.008-7.22a6.001 6.001 0 0 1-4.027-4.296 5.989 5.989 0 0 1 1.582-5.672l15.785-15.785a6.017 6.017 0 0 1 5.672-1.586 6.001 6.001 0 0 1 4.293 4.031l7.223 23.008a6.005 6.005 0 0 1-1.481 6.043 6.017 6.017 0 0 1-4.242 1.754zm-11.766-15.98 2.598.816-.813-2.602zm0 0" opacity="1" data-original="#4c4372" class=""></path><path fill="#000000" d="m251.832 267.617 15.785-15.785 7.223 23.008zM154.754 176.54a5.996 5.996 0 0 1-4.242-1.759l-12.328-12.328a17.033 17.033 0 0 1-5.028-12.133c0-4.582 1.785-8.89 5.028-12.132 6.691-6.692 17.574-6.692 24.265 0l12.328 12.328a5.993 5.993 0 0 1 0 8.48l-15.785 15.79a5.986 5.986 0 0 1-4.238 1.753zm-8.082-29.868a5.117 5.117 0 0 0-1.516 3.648c0 1.375.54 2.672 1.512 3.649l8.086 8.082 7.297-7.297-8.086-8.082a5.154 5.154 0 0 0-7.293 0zm0 0" opacity="1" data-original="#4c4372" class=""></path><path fill="#000000" d="M274.84 280.84c-.602 0-1.207-.09-1.797-.277l-23.008-7.22a6.047 6.047 0 0 1-2.445-1.484L138.184 162.453a17.05 17.05 0 0 1-5.028-12.133c0-4.582 1.785-8.89 5.028-12.132 6.695-6.692 17.582-6.692 24.27 0l109.401 109.406a5.979 5.979 0 0 1 1.485 2.445l7.223 23.008a6.002 6.002 0 0 1-1.485 6.039 6.001 6.001 0 0 1-4.238 1.754zm-19.805-18.504 10.637 3.34-3.34-10.64-108.363-108.364a5.158 5.158 0 0 0-7.297 0 5.114 5.114 0 0 0-1.512 3.648c0 1.375.535 2.672 1.512 3.649zm0 0" opacity="1" data-original="#4c4372" class=""></path></g></svg>