<svg xmlns="http://www.w3.org/2000/svg" version="1.1" xmlns:xlink="http://www.w3.org/1999/xlink" width="512" height="512" x="0" y="0" viewBox="0 0 414 414" style="enable-background:new 0 0 512 512" xml:space="preserve" class=""><g><path fill="#ffc627" d="M414 207c0 114.324-92.676 207-207 207S0 321.324 0 207 92.676 0 207 0s207 92.676 207 207zm0 0" opacity="1" data-original="#f0c48a" class=""></path><path fill="#00a3e0" d="M333.813 286.598H80.188c-9.278 0-16.793-7.52-16.793-16.793V102.707c0-9.273 7.515-16.789 16.792-16.789h253.625c9.278 0 16.793 7.52 16.793 16.789v167.098c0 9.273-7.515 16.793-16.793 16.793zm0 0" opacity="1" data-original="#7babf1" class=""></path><path fill="#ffffff" d="M80.188 286.598h253.625c9.277 0 16.792-7.52 16.792-16.793v-45.528h-54.738V207H272.02v-34.906h-93.254v19.511H151.28v24.032h-25.52V207H96.313v17.277H63.395v45.528c0 9.273 7.515 16.793 16.792 16.793zm0 0" opacity="1" data-original="#a4cff2" class=""></path><path fill="#b46670" d="M267.836 368.086H146.164v-20.649c0-7.867 6.379-14.242 14.246-14.242h93.18c7.867 0 14.242 6.375 14.242 14.243v20.648zm0 0" opacity="1" data-original="#fd919e" class=""></path><path fill="#8c1d40" d="M184.203 286.598h45.594v46.597h-45.594zM253.59 333.195h-29.414c7.867 0 14.242 6.375 14.242 14.243v20.648h29.414v-20.649c.004-7.867-6.375-14.242-14.242-14.242zm0 0" opacity="1" data-original="#e8677d" class=""></path><path fill="#000000" d="M229.797 339.195h-45.594c-3.316 0-6-2.687-6-6v-46.597c0-3.317 2.684-6 6-6h45.594c3.316 0 6 2.683 6 6v46.597c0 3.313-2.684 6-6 6zm-39.594-12h33.594v-34.597h-33.594zm0 0" opacity="1" data-original="#4c4372" class=""></path><path fill="#000000" d="M267.836 374.086H146.164c-3.312 0-6-2.688-6-6v-20.649c0-11.164 9.082-20.246 20.246-20.246h93.18c11.164 0 20.246 9.082 20.246 20.247v20.648c0 3.312-2.688 6-6 6zm-115.672-12h109.672v-14.649c0-4.546-3.703-8.246-8.246-8.246h-93.18c-4.547 0-8.246 3.7-8.246 8.247zM333.813 292.598H80.188c-12.57 0-22.793-10.227-22.793-22.793v-45.528c0-3.312 2.683-6 6-6h26.917V207c0-3.313 2.684-6 6-6h29.45c3.312 0 6 2.688 6 6v2.64h13.52v-18.03c0-3.317 2.687-6 6-6h21.484v-13.516c0-3.317 2.687-6 6-6h93.254c3.312 0 6 2.683 6 6V201h17.847c3.313 0 6 2.688 6 6v11.277h48.738c3.317 0 6 2.688 6 6v45.528c0 12.566-10.222 22.793-22.792 22.793zm-264.418-62.32v39.527c0 5.949 4.84 10.793 10.792 10.793h253.625c5.954 0 10.793-4.84 10.793-10.793v-39.528h-48.738c-3.316 0-6-2.683-6-6V213H272.02c-3.317 0-6-2.688-6-6v-28.906h-81.254v13.515c0 3.313-2.688 6-6 6H157.28v18.032c0 3.312-2.683 6-6 6h-25.52c-3.316 0-6-2.688-6-6V213h-17.449v11.277c0 3.317-2.687 6-6 6zm0 0" opacity="1" data-original="#4c4372" class=""></path><path fill="#000000" d="M333.813 292.598H80.188c-12.57 0-22.793-10.227-22.793-22.793V102.707c0-12.566 10.222-22.793 22.792-22.793h253.625c12.57 0 22.793 10.227 22.793 22.793v167.098c0 12.566-10.222 22.793-22.793 22.793zM80.188 91.914c-5.954 0-10.793 4.844-10.793 10.793v167.098c0 5.953 4.84 10.793 10.793 10.793h253.625c5.953 0 10.792-4.84 10.792-10.793V102.707c0-5.95-4.84-10.793-10.793-10.793zm0 0" opacity="1" data-original="#4c4372" class=""></path><path fill="#ffffff" d="M155.066 137.348h-17.28v-17.282h-21.06v17.282H99.45v21.054h17.278v17.282h21.058v-17.282h17.281zm0 0" opacity="1" data-original="#a4cff2" class=""></path><path fill="#000000" d="M137.785 181.684h-21.058c-3.313 0-6-2.688-6-6v-11.286H99.449c-3.316 0-6-2.683-6-6v-21.05c0-3.317 2.684-6 6-6h11.278v-11.282c0-3.312 2.687-6 6-6h21.058c3.313 0 6 2.688 6 6v11.282h11.281c3.313 0 6 2.683 6 6v21.054c0 3.313-2.687 6-6 6h-11.28v11.282c0 3.312-2.688 6-6 6zm-15.058-12h9.058v-11.286c0-3.312 2.684-6 6-6h11.281v-9.054h-11.28c-3.317 0-6-2.688-6-6v-11.281h-9.06v11.28c0 3.313-2.683 6-6 6H105.45v9.055h11.278c3.316 0 6 2.688 6 6zm0 0" opacity="1" data-original="#4c4372" class=""></path><path fill="#b46670" d="M194.063 251.902c-5.079-5.074-5.079-13.304 0-18.379l90.43-90.43c5.073-5.077 13.304-5.077 18.382 0 5.074 5.075 5.074 13.305 0 18.38l-90.43 90.43c-5.078 5.077-13.308 5.077-18.382 0zm0 0" opacity="1" data-original="#fd919e" class=""></path><g fill="#4c4372"><path d="M203.254 261.703c-4.867 0-9.73-1.851-13.434-5.558-7.41-7.407-7.41-19.458 0-26.868l90.43-90.43c7.406-7.406 19.46-7.406 26.867 0 7.41 7.41 7.41 19.462 0 26.868l-90.43 90.43c-3.703 3.707-8.566 5.558-13.433 5.558zm90.43-116.414a6.97 6.97 0 0 0-4.95 2.047l-90.43 90.43a7 7 0 0 0 0 9.894 7.005 7.005 0 0 0 9.9 0l90.429-90.43c2.726-2.726 2.726-7.167 0-9.894a6.963 6.963 0 0 0-4.95-2.047zm0 0" fill="#000000" opacity="1" data-original="#4c4372" class=""></path><path d="M184.602 267.367a5.967 5.967 0 0 1-4.243-1.758 5.998 5.998 0 0 1 0-8.484l9.461-9.46c2.34-2.345 6.14-2.345 8.485 0s2.343 6.14 0 8.483l-9.461 9.461a5.987 5.987 0 0 1-4.242 1.758zM295.156 175.191a5.98 5.98 0 0 1-4.242-1.757l-18.379-18.383a5.998 5.998 0 0 1 0-8.485 5.998 5.998 0 0 1 8.485 0l18.378 18.383a5.998 5.998 0 0 1 0 8.485 5.967 5.967 0 0 1-4.242 1.757zM220.16 250.188a5.98 5.98 0 0 1-4.242-1.758l-18.383-18.383a6.01 6.01 0 0 1 0-8.488 6.01 6.01 0 0 1 8.488 0l18.38 18.382a6.003 6.003 0 0 1 0 8.489 5.967 5.967 0 0 1-4.243 1.757zM245.578 224.77a5.965 5.965 0 0 1-4.238-1.758l-18.383-18.383a5.998 5.998 0 0 1 0-8.484 5.998 5.998 0 0 1 8.484 0l18.38 18.382a5.998 5.998 0 0 1 0 8.485 5.98 5.98 0 0 1-4.243 1.758zm0 0" fill="#000000" opacity="1" data-original="#4c4372" class=""></path></g></g></svg>