<svg xmlns="http://www.w3.org/2000/svg" version="1.1" xmlns:xlink="http://www.w3.org/1999/xlink" width="512" height="512" x="0" y="0" viewBox="0 0 414 414" style="enable-background:new 0 0 512 512" xml:space="preserve" class=""><g><path fill="#ffc627" d="M414 207c0 114.324-92.676 207-207 207S0 321.324 0 207 92.676 0 207 0s207 92.676 207 207zm0 0" opacity="1" data-original="#f0c48a" class=""></path><path fill="#00a3e0" d="M294.82 258.926H73.832c-8.078 0-14.629-6.551-14.629-14.63V98.704c0-8.082 6.55-14.633 14.629-14.633H294.82c8.082 0 14.633 6.551 14.633 14.633v145.594c0 8.078-6.55 14.629-14.633 14.629zm0 0" opacity="1" data-original="#7babf1" class=""></path><path fill="#ffffff" d="M86.496 171.496h49.547v49.547H86.496zM159.555 171.496h49.547v49.547h-49.547zM232.613 171.496h49.547v49.547h-49.547zm0 0" opacity="1" data-original="#a4cff2" class=""></path><path fill="#ffffff" d="M86.496 111.152h97.832v33.621H86.496zm0 0" opacity="1" data-original="#ffffff" class=""></path><path fill="#b46670" d="M237.332 329.93H131.32V311.94c0-6.855 5.559-12.414 12.414-12.414h81.188c6.855 0 12.414 5.559 12.414 12.414v17.989zm0 0" opacity="1" data-original="#fd919e" class=""></path><path fill="#8c1d40" d="M164.465 258.926h39.726v40.601h-39.726zm0 0" opacity="1" data-original="#e8677d" class=""></path><path fill="#8c1d40" d="M224.922 299.527h-25.629c6.852 0 12.41 5.559 12.41 12.414v17.989h25.629V311.94c0-6.855-5.555-12.414-12.41-12.414zm0 0" opacity="1" data-original="#e8677d" class=""></path><g fill="#4c4372"><path d="M294.82 264.926H73.832c-11.375 0-20.629-9.254-20.629-20.63V98.704c0-11.379 9.254-20.633 20.629-20.633H294.82c11.38 0 20.633 9.254 20.633 20.633v145.594c0 11.375-9.254 20.629-20.633 20.629zM73.832 90.07c-4.762 0-8.629 3.875-8.629 8.633v145.594c0 4.758 3.871 8.629 8.629 8.629H294.82c4.762 0 8.633-3.871 8.633-8.63V98.704c0-4.758-3.875-8.633-8.633-8.633zm0 0" fill="#000000" opacity="1" data-original="#4c4372" class=""></path><path d="M204.191 305.527h-39.726c-3.317 0-6-2.683-6-6V258.93c0-3.317 2.683-6 6-6h39.726c3.317 0 6 2.683 6 6v40.597c0 3.313-2.683 6-6 6zm-33.73-12h27.73V264.93h-27.73zm0 0" fill="#000000" opacity="1" data-original="#4c4372" class=""></path><path d="M237.332 335.93H131.32c-3.312 0-6-2.688-6-6V311.94c0-10.152 8.262-18.414 18.414-18.414h81.188c10.148 0 18.41 8.262 18.41 18.414v17.989c0 3.312-2.687 6-6 6zm-100.012-12h94.012V311.94a6.417 6.417 0 0 0-6.41-6.414h-81.188a6.42 6.42 0 0 0-6.414 6.414zM136.043 227.043H86.496c-3.312 0-6-2.684-6-6V171.5c0-3.313 2.688-6 6-6h49.543c3.316 0 6 2.688 6 6v49.547a5.992 5.992 0 0 1-5.996 5.996zm-43.547-12h37.543V177.5H92.496zM209.102 227.043h-49.547c-3.313 0-6-2.684-6-6V171.5c0-3.313 2.687-6 6-6h49.547c3.312 0 6 2.688 6 6v49.547a5.998 5.998 0 0 1-6 5.996zm-43.547-12h37.543V177.5h-37.543zM282.156 227.043h-49.543c-3.312 0-6-2.684-6-6V171.5c0-3.313 2.688-6 6-6h49.543c3.317 0 6 2.688 6 6v49.547a5.996 5.996 0 0 1-6 5.996zm-43.543-12h37.543V177.5h-37.543zM184.328 150.773H86.496c-3.312 0-6-2.687-6-6v-33.62c0-3.313 2.688-6 6-6h97.832c3.313 0 6 2.687 6 6v33.62c0 3.313-2.687 6-6 6zm-91.832-12h85.832v-21.62H92.496zM282.156 121.152H207c-3.313 0-6-2.683-6-6 0-3.312 2.688-6 6-6h75.156c3.317 0 6 2.688 6 6 0 3.317-2.683 6-6 6zM282.156 146.773H207c-3.313 0-6-2.687-6-6 0-3.316 2.688-6 6-6h75.156c3.317 0 6 2.684 6 6 0 3.313-2.683 6-6 6zm0 0" fill="#000000" opacity="1" data-original="#4c4372" class=""></path></g><path fill="#00a3e0" d="M343.074 329.93h-67.246c-5.351 0-9.691-4.34-9.691-9.696v-121.87c0-5.352 4.34-9.692 9.691-9.692h67.246c5.356 0 9.696 4.34 9.696 9.691v121.871a9.694 9.694 0 0 1-9.696 9.696zm0 0" opacity="1" data-original="#7babf1" class=""></path><path fill="#ffffff" d="M285.387 224.727h48.133v31.433h-48.133zm0 0" opacity="1" data-original="#ffffff" class=""></path><path fill="#b46670" d="M266.137 311.094v9.14c0 5.356 4.34 9.696 9.691 9.696h67.246a9.694 9.694 0 0 0 9.696-9.696v-9.14zM320.469 207.094h-22.031a6.832 6.832 0 0 1-6.618-5.14l-3.398-13.282h42.066l-3.398 13.281a6.84 6.84 0 0 1-6.621 5.14zm0 0" opacity="1" data-original="#fd919e" class=""></path><path fill="#000000" d="M320.465 213.094h-22.027a12.826 12.826 0 0 1-12.434-9.653l-3.399-13.285a5.998 5.998 0 0 1 5.809-7.484h42.07c1.856 0 3.606.855 4.739 2.32a5.992 5.992 0 0 1 1.074 5.164l-3.402 13.285a12.818 12.818 0 0 1-12.43 9.653zm-24.32-18.422 1.484 5.793a.832.832 0 0 0 .809.629h22.027a.833.833 0 0 0 .808-.625l1.485-5.797zM343.074 335.93h-67.246c-8.652 0-15.691-7.043-15.691-15.696v-9.144c0-3.313 2.683-6 6-6h86.633c3.312 0 6 2.687 6 6v9.144c0 8.653-7.043 15.696-15.696 15.696zm-70.937-18.84v3.144a3.7 3.7 0 0 0 3.691 3.696h67.246a3.7 3.7 0 0 0 3.696-3.696v-3.144zm0 0" opacity="1" data-original="#4c4372" class=""></path><path fill="#000000" d="M343.074 335.93h-67.246c-8.652 0-15.691-7.043-15.691-15.696v-121.87c0-8.653 7.039-15.692 15.691-15.692h67.246c8.653 0 15.696 7.039 15.696 15.691v121.871c0 8.653-7.043 15.696-15.696 15.696zm-67.246-141.258a3.696 3.696 0 0 0-3.691 3.691v121.871a3.7 3.7 0 0 0 3.691 3.696h67.246a3.7 3.7 0 0 0 3.696-3.696v-121.87a3.694 3.694 0 0 0-3.696-3.692zm0 0" opacity="1" data-original="#4c4372" class=""></path><path fill="#000000" d="M333.52 262.16h-48.133c-3.313 0-6-2.687-6-6v-31.433c0-3.317 2.687-6 6-6h48.133c3.312 0 6 2.683 6 6v31.433c0 3.313-2.688 6-6 6zm-42.133-12h36.129v-19.433h-36.13zM333.52 279.91h-48.133c-3.313 0-6-2.683-6-6 0-3.312 2.687-6 6-6h48.133c3.312 0 6 2.688 6 6 0 3.317-2.688 6-6 6zM333.52 298.504h-48.133c-3.313 0-6-2.688-6-6 0-3.317 2.687-6 6-6h48.133c3.312 0 6 2.683 6 6 0 3.312-2.688 6-6 6zm0 0" opacity="1" data-original="#4c4372" class=""></path></g></svg>